Coordinates
version=1
nRows=21
nColumns=12
inDegrees=yes

Units are S.I. units (second, meters, Newtons, ...)
Angles are in degrees

endheader
time	SC_y	SC_z	SC_x	AC_y	AC_z	AC_x	GH_y	GH_z	GH_yy	EL_x	PS_y
       0.0              -49.17          24.89          70.36          42.57         -13.26          17.46         -177.2          26.49         -103.2          41.29          7.664
   0.03108              -49.17          24.89          70.36          42.57         -13.26          17.46         -177.2          26.49         -103.1          41.29          7.685
   0.06216              -49.17          24.89          70.35          42.57         -13.25          17.46         -177.2          26.49         -103.1          41.29          7.708
   0.09324              -49.17          24.89          70.35          42.57         -13.25          17.46         -177.2          26.49         -103.1          41.29          7.732
    0.1243              -49.17          24.89          70.34          42.57         -13.25          17.46         -177.2          26.49         -103.0          41.29          7.757
    0.1554              -49.16          24.89          70.34          42.57         -13.24          17.46         -177.2          26.49         -103.0          41.29          7.784
    0.1865              -49.16          24.89          70.34          42.57         -13.24          17.46         -177.2          26.49         -102.9          41.29          7.814
    0.2176              -49.16          24.89          70.33          42.57         -13.23          17.46         -177.2          26.48         -102.9          41.29          7.845
    0.2486              -49.16          24.89          70.32          42.57         -13.23          17.46         -177.1          26.48         -102.8          41.29          7.878
    0.2797              -49.16          24.89          70.32          42.58         -13.22          17.45         -177.1          26.48         -102.8          41.29          7.914
    0.3108              -49.16          24.89          70.31          42.58         -13.22          17.45         -177.1          26.48         -102.7          41.29          7.952
    0.3419              -49.16          24.89           70.3          42.58         -13.21          17.45         -177.1          26.48         -102.7          41.29          7.993
     0.373              -49.16          24.89           70.3          42.58          -13.2          17.45         -177.1          26.48         -102.6          41.29          8.038
    0.4041              -49.15          24.89          70.29          42.58          -13.2          17.45         -177.0          26.48         -102.5          41.29          8.086
    0.4351              -49.15          24.89          70.28          42.58         -13.19          17.45         -177.0          26.48         -102.4          41.29          8.138
    0.4662              -49.15          24.89          70.27          42.59         -13.18          17.44         -177.0          26.48         -102.4          41.29          8.194
    0.4973              -49.15           24.9          70.26          42.59         -13.17          17.44         -176.9          26.48         -102.3          41.29          8.256
    0.5284              -49.15           24.9          70.25          42.59         -13.16          17.44         -176.9          26.47         -102.2          41.29          8.323
    0.5595              -49.15           24.9          70.24           42.6         -13.15          17.44         -176.9          26.47         -102.0          41.29          8.396
    0.5905              -49.14           24.9          70.22           42.6         -13.14          17.43         -176.8          26.47         -101.9          41.29          8.476
    0.6216              -49.14           24.9          70.21           42.6         -13.12          17.43         -176.8          26.47         -101.8          41.29          8.563
